HIERARCHY
ROOT Hips
{
	OFFSET 0.00000 0.00000 0.00000
	CHANNELS 6 Xposition Yposition Zposition Zrotation Yrotation Xrotation 
	JOINT LHipJoint
	{
		OFFSET 0 0 0
		CHANNELS 3 Zrotation Yrotation Xrotation
		JOINT LeftUpLeg
		{
			OFFSET 1.77779 -1.88989 0.48267
			CHANNELS 3 Zrotation Yrotation Xrotation
			JOINT LeftLeg
			{
				OFFSET 2.53442 -6.96327 0.00000
				CHANNELS 3 Zrotation Yrotation Xrotation
				JOINT LeftFoot
				{
					OFFSET 2.71068 -7.44755 0.00000
					CHANNELS 3 Zrotation Yrotation Xrotation
					JOINT LeftToeBase
					{
						OFFSET 0.17992 -0.49431 2.22524
						CHANNELS 3 Zrotation Yrotation Xrotation
						End Site
						{
							OFFSET 0.00000 -0.00000 1.14687
						}
					}
				}
			}
		}
	}
	JOINT RHipJoint
	{
		OFFSET 0 0 0
		CHANNELS 3 Zrotation Yrotation Xrotation
		JOINT RightUpLeg
		{
			OFFSET -1.58469 -1.88989 0.48267
			CHANNELS 3 Zrotation Yrotation Xrotation
			JOINT RightLeg
			{
				OFFSET -2.60386 -7.15404 0.00000
				CHANNELS 3 Zrotation Yrotation Xrotation
				JOINT RightFoot
				{
					OFFSET -2.73334 -7.50979 0.00000
					CHANNELS 3 Zrotation Yrotation Xrotation
					JOINT RightToeBase
					{
						OFFSET -0.25618 -0.70384 2.21822
						CHANNELS 3 Zrotation Yrotation Xrotation
						End Site
						{
							OFFSET -0.00000 -0.00000 1.16381
						}
					}
				}
			}
		}
	}
	JOINT LowerBack
	{
		OFFSET 0 0 0
		CHANNELS 3 Zrotation Yrotation Xrotation
		JOINT Spine
		{
			OFFSET 0.03410 2.01612 -0.22230
			CHANNELS 3 Zrotation Yrotation Xrotation
			JOINT Spine1
			{
				OFFSET 0.03465 2.03012 0.00937
				CHANNELS 3 Zrotation Yrotation Xrotation
				JOINT Neck
				{
					OFFSET 0 0 0
					CHANNELS 3 Zrotation Yrotation Xrotation
					JOINT Neck1
					{
						OFFSET -0.00219 1.70459 0.20857
						CHANNELS 3 Zrotation Yrotation Xrotation
						JOINT Head
						{
							OFFSET 0.02518 1.72339 -0.22179
							CHANNELS 3 Zrotation Yrotation Xrotation
							End Site
							{
								OFFSET 0.00282 1.74122 -0.09823
							}
						}
					}
				}
				JOINT LeftShoulder
				{
					OFFSET 0 0 0
					CHANNELS 3 Zrotation Yrotation Xrotation
					JOINT LeftArm
					{
						OFFSET 3.36358 1.00547 -0.37661
						CHANNELS 3 Zrotation Yrotation Xrotation
						JOINT LeftForeArm
						{
							OFFSET 5.06507 -0.00000 0.00000
							CHANNELS 3 Zrotation Yrotation Xrotation
							JOINT LeftHand
							{
								OFFSET 3.60196 -0.00000 0.00000
								CHANNELS 3 Zrotation Yrotation Xrotation
								JOINT LeftFingerBase
								{
									OFFSET 0 0 0
									CHANNELS 3 Zrotation Yrotation Xrotation
									JOINT LeftHandIndex1
									{
										OFFSET 0.45035 -0.00000 0.00000
										CHANNELS 3 Zrotation Yrotation Xrotation
										End Site
										{
											OFFSET 0.36308 -0.00000 0.00000
										}
									}
								}
								JOINT LThumb
								{
									OFFSET 0 0 0
									CHANNELS 3 Zrotation Yrotation Xrotation
									End Site
									{
										OFFSET 0.36862 -0.00000 0.36862
									}
								}
							}
						}
					}
				}
				JOINT RightShoulder
				{
					OFFSET 0 0 0
					CHANNELS 3 Zrotation Yrotation Xrotation
					JOINT RightArm
					{
						OFFSET -3.50159 0.80383 -0.71526
						CHANNELS 3 Zrotation Yrotation Xrotation
						JOINT RightForeArm
						{
							OFFSET -5.36394 -0.00000 0.00000
							CHANNELS 3 Zrotation Yrotation Xrotation
							JOINT RightHand
							{
								OFFSET -3.58035 -0.00000 0.00000
								CHANNELS 3 Zrotation Yrotation Xrotation
								JOINT RightFingerBase
								{
									OFFSET 0 0 0
									CHANNELS 3 Zrotation Yrotation Xrotation
									JOINT RightHandIndex1
									{
										OFFSET -0.66375 -0.00000 0.00000
										CHANNELS 3 Zrotation Yrotation Xrotation
										End Site
										{
											OFFSET -0.53513 -0.00000 0.00000
										}
									}
								}
								JOINT RThumb
								{
									OFFSET 0 0 0
									CHANNELS 3 Zrotation Yrotation Xrotation
									End Site
									{
										OFFSET -0.54330 -0.00000 0.54330
									}
								}
							}
						}
					}
				}
			}
		}
	}
}
MOTION
Frames: 13
Frame Time: .0083333
0.7372 18.5883 8.0506 0.3266 -5.5812 5.4580 0.0000 0.0000 0.0000 -29.2969 0.7056 14.7523 4.8714 13.2375 40.2641 1.1993 -11.6870 27.9102 1.1895 -6.9209 -19.4813 0.0000 0.0000 0.0000 25.2049 10.8123 -33.3248 -1.3871 -7.4518 21.0610 -0.0444 -4.8392 4.7484 -0.3977 4.0491 -11.2149 -1.5243 -0.6835 12.3113 1.2829 -1.0365 -0.9686 2.4210 -0.4083 -7.9035 -2.9918 -2.0338 -19.4026 3.9776 -2.4824 8.0921 1.4941 -0.9903 5.6614 0.0000 -0.0000 0.0000 -81.6947 7.9835 31.9311 140.5599 -47.7347 -101.9762 -0.0000 0.0000 -34.8121 23.2718 3.9109 1.6802 -7.1250 0.0000 -0.0000 -2.7671 34.2258 0.7322 0.0000 -0.0000 0.0000 91.5926 -39.7141 30.0307 -124.9633 54.8354 -89.7540 0.0000 -0.0000 -20.6907 -23.0288 38.5264 -14.8296 7.1250 -0.0000 -0.0000 6.0650 10.6820 7.1203
0.7595 18.5201 8.5430 0.0365 -6.1772 5.1500 0.0000 0.0000 0.0000 -28.9787 1.1530 13.7147 5.8293 14.2608 44.2926 1.0120 -12.8758 27.6163 1.5981 -7.9734 -22.6334 0.0000 0.0000 0.0000 26.1303 10.4157 -32.7872 -1.4402 -7.5870 21.4664 -0.0515 -5.2038 5.1099 -0.4174 4.1469 -11.4903 -1.1782 -0.5047 12.9402 1.3625 -0.7440 -1.0157 2.2680 -0.2731 -8.3318 -3.1456 -2.0155 -18.7665 3.9162 -2.4196 7.8044 1.5082 -0.9783 5.4678 -0.0000 -0.0000 0.0000 -82.3664 8.5683 32.0454 139.6744 -48.2617 -101.3181 -0.0000 0.0000 -34.8099 23.7028 2.3333 1.0240 -7.1250 0.0000 -0.0000 -2.3349 32.5219 0.7140 -0.0000 -0.0000 0.0000 91.9937 -39.5088 29.8470 -124.2934 55.0529 -89.2056 0.0000 -0.0000 -19.0633 -26.8076 39.3842 -17.7771 7.1250 -0.0000 -0.0000 4.3085 12.5222 5.1530
0.7804 18.4478 9.0372 -0.2536 -6.7990 4.8179 0.0000 0.0000 0.0000 -28.5671 1.4877 12.2527 6.9573 15.2959 48.7128 1.2006 -12.4086 28.5395 1.1441 -6.7924 -19.1016 0.0000 0.0000 0.0000 27.0229 10.0001 -31.9909 -1.4932 -7.7193 21.8646 -0.0744 -5.0887 5.6231 -0.4132 4.1263 -11.4323 -0.8029 -0.2986 13.1374 1.3737 -0.4120 -0.7409 2.0007 -0.1326 -8.1652 -3.0008 -2.0833 -18.4424 3.6876 -2.5120 7.3193 1.4048 -1.0423 5.2607 -0.0000 -0.0000 0.0000 -82.9578 8.4233 32.2368 138.2749 -49.0594 -100.2673 -0.0000 0.0000 -35.0954 24.9136 1.4480 0.6725 -7.1250 0.0000 -0.0000 -1.3306 31.5745 0.4370 -0.0000 -0.0000 0.0000 92.4965 -38.5440 29.1814 -124.2111 55.0792 -89.1381 0.0000 -0.0000 -20.4456 -23.3078 38.7374 -15.0878 7.1250 -0.0000 -0.0000 5.9627 10.9610 7.0221
0.8001 18.3783 9.5528 -0.4353 -7.2128 4.4375 0.0000 0.0000 0.0000 -28.1588 1.7878 10.9036 8.1116 16.2007 52.9636 1.3362 -12.2607 29.3411 0.9259 -6.1300 -17.1621 0.0000 0.0000 0.0000 27.6274 9.4994 -31.2156 -1.6175 -8.0193 22.7728 -0.1079 -4.2386 6.1294 -0.3273 3.6768 -10.1692 -0.4264 -0.1909 13.0754 1.3152 -0.2184 -0.3318 1.6813 -0.0621 -7.6984 -2.9300 -2.0549 -18.2521 3.6740 -2.4813 6.8343 1.3935 -1.0309 5.0755 -0.0000 -0.0000 0.0000 -83.4705 8.2470 32.3331 136.8254 -49.8422 -99.1659 -0.0000 0.0000 -35.2643 25.3001 2.1887 1.0342 -7.1250 0.0000 -0.0000 -1.0392 32.3993 0.3206 -0.0000 -0.0000 0.0000 92.9143 -37.2207 28.7629 -123.7670 55.2196 -88.7737 0.0000 -0.0000 -21.7110 -19.9987 38.2720 -12.7036 7.1250 -0.0000 -0.0000 7.5908 9.7259 8.8353
0.8091 18.2869 10.0142 -1.3746 -7.7982 4.5305 0.0000 0.0000 0.0000 -26.5439 2.2639 8.5794 9.4321 17.0779 57.5729 1.3349 -13.1451 30.0857 0.8838 -5.9928 -16.7636 0.0000 0.0000 0.0000 28.7565 10.2450 -30.6995 -1.7953 -8.4261 24.0158 -0.1435 -2.9234 6.7414 -0.1503 2.4982 -6.8846 0.3547 -0.0429 13.4999 1.5551 0.1223 -0.3172 1.4307 0.0781 -7.9334 -3.2013 -2.0002 -17.9433 3.9940 -2.3867 6.7078 1.5488 -0.9731 4.9920 -0.0000 -0.0000 0.0000 -84.0846 8.4065 32.3444 135.2207 -50.6599 -97.9321 -0.0000 0.0000 -35.0455 25.2232 1.9649 0.9253 -7.1250 0.0000 -0.0000 -1.0952 32.1503 0.3445 -0.0000 -0.0000 0.0000 93.1615 -36.1451 28.7095 -123.2843 55.3693 -88.3768 0.0000 -0.0000 -22.1051 -18.5845 38.3363 -11.7807 7.1250 -0.0000 -0.0000 8.3376 9.4851 9.6923
0.8252 18.1864 10.5679 -1.3339 -8.1831 3.8809 0.0000 0.0000 0.0000 -26.0381 3.0990 7.5560 10.6583 17.7638 61.6668 1.6511 -12.3674 31.4578 0.3995 -4.0582 -11.2405 0.0000 0.0000 0.0000 29.0364 9.4217 -29.8080 -2.0769 -9.0244 25.8718 -0.1247 0.9264 7.0759 -0.1462 -2.4640 6.7899 0.5659 0.0504 13.3622 1.4099 0.2611 -0.0392 1.1261 0.1326 -7.5576 -3.1939 -2.0073 -17.2561 4.0522 -2.4189 6.5712 1.5660 -0.9929 4.8429 0.0000 -0.0000 0.0000 -84.4956 8.9569 32.5886 133.3586 -51.5477 -96.4827 -0.0000 0.0000 -34.6039 25.6553 0.0213 0.0103 -7.1250 0.0000 -0.0000 -0.7175 30.0030 0.2626 0.0000 -0.0000 0.0000 93.4342 -35.2226 28.8709 -122.6729 55.5546 -87.8733 0.0000 -0.0000 -21.8898 -18.8087 38.4157 -11.9494 7.1250 -0.0000 -0.0000 8.2342 9.6109 9.5846
0.8341 18.0799 11.0723 -1.4270 -8.7351 3.5605 0.0000 0.0000 0.0000 -25.2032 3.8540 5.6775 12.0250 18.4012 66.0681 1.9833 -11.6192 32.8900 0.1863 -2.7798 -7.6664 0.0000 0.0000 0.0000 29.1908 9.7035 -29.1569 -2.4523 -9.7506 28.1728 -0.0037 3.8141 5.6037 -0.6160 -5.0232 13.9749 0.7288 0.2883 13.7376 1.2725 0.6009 -0.2227 0.8208 0.2883 -7.9694 -2.8950 -2.0109 -15.7956 3.8903 -2.4939 6.1307 1.4684 -1.0512 4.4711 -0.0000 0.0000 0.0000 -84.7542 10.1379 32.9913 131.7865 -52.2491 -95.2456 -0.0000 0.0000 -34.2505 26.0857 -0.6086 -0.2979 -7.1250 0.0000 -0.0000 -0.3767 29.3021 0.1441 -0.0000 0.0000 0.0000 93.9338 -34.5153 29.0219 -121.7555 55.8237 -87.1154 0.0000 -0.0000 -21.3692 -19.5351 38.2536 -12.3898 7.1250 -0.0000 -0.0000 7.8290 9.6062 9.1040
0.8478 17.9613 11.5752 -1.3923 -8.9562 3.3508 0.0000 0.0000 0.0000 -24.4103 4.3733 3.7914 13.3975 18.9210 70.3556 2.1662 -10.1975 32.9708 0.0746 -1.7624 -4.8493 0.0000 0.0000 0.0000 29.1141 9.8995 -28.7954 -2.9816 -10.6652 31.1589 0.0732 4.8016 1.4211 -0.6838 -5.2869 14.7287 0.8802 0.3894 14.0756 1.1510 0.7591 -0.4335 0.5719 0.3549 -8.3867 -2.8840 -2.0249 -14.7396 3.9612 -2.5410 5.9475 1.4911 -1.0823 4.2491 -0.0000 -0.0000 0.0000 -85.1038 11.1745 33.1408 130.2706 -52.8858 -94.0418 -0.0000 0.0000 -33.9370 26.1882 -0.0908 -0.0446 -7.1250 0.0000 -0.0000 -0.2969 29.8785 0.1095 -0.0000 -0.0000 0.0000 94.1670 -33.6588 29.5737 -120.9970 56.0384 -86.4872 0.0000 -0.0000 -20.7117 -21.1051 37.7609 -13.2981 7.1250 -0.0000 -0.0000 6.9232 9.4656 8.0214
0.8529 17.8300 12.0658 -1.4517 -9.0725 3.2346 0.0000 0.0000 0.0000 -23.2774 4.8080 1.4508 14.8827 19.3602 74.8830 2.1615 -8.6070 31.9264 0.0289 -1.0965 -3.0143 0.0000 0.0000 0.0000 29.1812 10.4938 -28.2048 -3.5677 -11.5618 34.1988 -0.0060 4.4209 -3.3166 -0.4643 -4.3709 12.1225 0.9266 0.4489 14.2572 1.1695 0.8490 -0.3519 0.5454 0.3965 -8.4015 -2.9800 -2.0176 -14.8141 4.0403 -2.5223 6.0594 1.5320 -1.0691 4.2973 0.0000 0.0000 0.0000 -85.5838 11.4783 33.1197 128.4523 -53.6010 -92.5849 -0.0000 0.0000 -33.2368 26.0535 0.1523 0.0745 -7.1250 0.0000 -0.0000 -0.4041 30.1492 0.1465 0.0000 0.0000 0.0000 94.0052 -32.0785 30.3180 -120.5002 56.1752 -86.0748 0.0000 -0.0000 -21.1351 -20.7542 37.3903 -12.9589 7.1250 -0.0000 -0.0000 7.0424 9.0172 8.1159
0.8494 17.7108 12.5496 -1.5725 -9.0084 3.2113 0.0000 0.0000 0.0000 -21.9332 5.0717 -0.9782 16.3474 19.6771 79.2650 2.0581 -8.2660 31.0908 0.0502 -1.4462 -3.9774 0.0000 0.0000 0.0000 29.3052 11.4882 -27.6078 -4.1591 -12.3691 37.0507 -0.1384 3.7487 -6.7195 -0.3843 -3.9808 11.0228 0.9561 0.4945 14.2524 1.2498 0.9163 -0.1154 0.6004 0.4303 -8.1442 -3.0924 -2.0226 -15.4195 4.0520 -2.5026 6.3836 1.5515 -1.0528 4.4950 0.0000 -0.0000 0.0000 -86.0799 11.5058 33.2300 126.4405 -54.3340 -90.9579 -0.0000 0.0000 -33.0778 25.6496 0.3658 0.1757 -7.1250 0.0000 -0.0000 -0.7252 30.3851 0.2588 0.0000 -0.0000 0.0000 93.8175 -29.9324 30.7673 -120.1200 56.2779 -85.7587 0.0000 -0.0000 -23.0499 -17.0879 36.9532 -10.4703 7.1250 -0.0000 -0.0000 8.9102 7.8141 10.1546
0.8430 17.6040 13.0240 -1.7601 -9.0255 3.1754 0.0000 0.0000 0.0000 -20.4696 5.4415 -3.3242 17.7402 19.8771 83.3799 1.8831 -8.3902 30.0755 0.0827 -1.8546 -5.1039 0.0000 0.0000 0.0000 29.5746 12.5261 -27.0136 -4.7273 -13.0700 39.6310 -0.2757 2.0913 -9.4127 -0.4614 -4.3574 12.0843 0.9015 0.5531 14.7227 1.4019 1.0077 -0.1971 0.7712 0.4788 -8.5034 -3.1158 -1.9861 -15.4830 3.8820 -2.4375 6.6715 1.5071 -1.0301 4.5899 0.0000 -0.0000 0.0000 -86.5737 12.2507 33.2718 124.2873 -55.0548 -89.2006 -0.0000 0.0000 -33.0518 25.6521 1.0219 0.4907 -7.1250 0.0000 -0.0000 -0.7317 31.1129 0.2484 0.0000 -0.0000 0.0000 93.4873 -28.1650 32.3035 -119.6104 56.4129 -85.3345 0.0000 -0.0000 -21.0672 -22.6873 37.3363 -14.2271 7.1250 -0.0000 -0.0000 6.0151 9.4096 6.9529
0.8238 17.5314 13.4967 -2.3271 -9.3783 3.0751 0.0000 0.0000 0.0000 -18.4411 6.1561 -5.6326 19.0009 19.9760 87.0776 1.6795 -8.0080 28.4958 0.0508 -1.4543 -3.9998 0.0000 0.0000 0.0000 30.4645 13.5286 -25.6795 -5.1855 -13.5898 41.6183 -0.4135 0.1568 -12.0951 -0.4874 -4.4764 12.4209 0.9967 0.7787 15.3355 1.6973 1.3598 -0.1370 0.9511 0.6497 -8.7942 -3.0571 -2.0069 -15.7111 3.5423 -2.4351 6.6878 1.3905 -1.0471 4.6254 0.0000 -0.0000 0.0000 -87.0066 12.8495 33.2356 121.9675 -55.7625 -87.2908 -0.0000 0.0000 -32.5614 25.4469 2.1425 1.0191 -7.1250 0.0000 -0.0000 -0.9193 32.3513 0.2847 0.0000 -0.0000 0.0000 93.1595 -26.0152 33.5333 -118.9226 56.5903 -84.7610 0.0000 -0.0000 -19.8544 -25.6035 37.6571 -16.3178 7.1250 -0.0000 -0.0000 4.5500 10.4611 5.3158
0.8054 17.4443 13.9748 -3.3248 -9.8149 3.0967 0.0000 0.0000 0.0000 -15.9523 6.8952 -7.9134 20.1730 19.9993 90.5058 1.3608 -8.1321 26.3321 0.0489 -1.4264 -3.9228 0.0000 0.0000 0.0000 31.9475 14.3266 -23.9887 -5.5562 -13.9841 43.1736 -0.5758 -0.9181 -14.6953 -0.3744 -3.9300 10.8798 1.5544 1.0271 15.7202 2.0563 1.8276 -0.0080 0.9101 0.8573 -8.8724 -2.8538 -2.0401 -16.1838 3.1685 -2.4701 6.7426 1.2351 -1.0789 4.7108 0.0000 0.0000 0.0000 -87.3115 13.5112 33.3939 119.7100 -56.3867 -85.4175 -0.0000 0.0000 -32.3637 24.6702 3.3359 1.5310 -7.1250 0.0000 -0.0000 -1.5910 33.6467 0.4431 0.0000 0.0000 0.0000 92.9198 -23.6943 34.3514 -118.8385 56.6116 -84.6907 0.0000 -0.0000 -20.2102 -23.8346 37.1964 -14.9532 7.1250 -0.0000 -0.0000 5.3847 9.5473 6.2285
